<svg xmlns="http://www.w3.org/2000/svg" viewBox="0 0 138 21"><g fill="#333"><path d="M1 17.3l2.8-3.6C5.2 15.1 7 16 9.3 16c2 0 3-.8 3-1.9 0-1.1-1-1.7-3.1-1.7h-2v-4h2c1.9 0 2.7-.7 2.7-1.8 0-1-.9-1.7-2.4-1.7-1.7 0-3.8.8-5 1.9L1.7 3.7C3.6 1.8 6.1.4 9.8.4c4.3 0 7.3 2.2 7.3 5.2 0 2.3-1.2 3.6-2.9 4.4 2 .7 3.4 2.1 3.4 4.5 0 3.5-2.9 6-7.7 6-4.4.1-6.7-1.3-8.9-3.2zM19 10.5C19 4.9 23.5.4 29.5.4s10.4 4.5 10.4 10.1-4.5 10.1-10.5 10.1S19 16.1 19 10.5zm15.4 1.1c0-2.8-2-7.4-5-7.4-2.9 0-4.9 4.5-4.9 7.4 0 2.8 2 5.2 5 5.2 2.9 0 4.9-2.4 4.9-5.2zM64.8.8h5.7l4.6 7.5L79.7.8h5.7v19.4H80V9.1l-5 7.6-4.9-7.6v11.1h-5.3V.8zM118.3.8H110v4.7c.1-.2.2-.4.3-.5.7-.6 3.2-.9 4.5-.5.5.2 1 .3 1.4.5.3.2.2.7.4.9.4.4 2 .5 2.6.5.6 0 1.8.1 1.8.6v.5c0 .2-.1.4-.1.6.1 1.9-1.3 2.1-2.7 2.3-.4.1-.7.3-1.1.3-.7 0-1.4-.2-1.9 0-1 .3-1.6 1.7-2.1 2.8-.5 1-2.4 2.7-3.2 3.8v3h5.4v-5.6h2.7c4.8 0 8.4-2.4 8.4-7-.1-4.4-3.2-6.9-8.1-6.9zM52.1.4c-6 0-10.5 4.5-10.5 10.1 0 5.4 4.1 9.7 9.7 10.1l-.1-.1s.1.1.2.1h.6c.1-.2.1-.4.1-.5.1-.1.4-1.1.4-1.1s-1.3-.6-1.3-1.3c0-.4-1 0-1.7-.4-.7-.3-2.6-1.6-2.9-3.3-.1-.5-.2-2.1 0-2.9.1-.4.7-2.7.8-2.9 0 0-.7.4-.9.1-.3-.4-.3-.6-.2-.9.1-.1 0-.2-.1-.2-.3 0-.7.2-.7.2s.1-.4.4-.6l.1-.1s-.1-.1 0-.2.1-.2.3-.1c.1 0 .3-.5.4-.7.1-.2.5-.1.5-.2 0 0 0-.3.1-.2.1.1.4.6.4.8 0 0 1.6.3 2.2 2 .6 1.7 1 2.2 2.6 2.3 1.6.1 4.3.6 4.9.4.6-.1 1.6-.8 2 0 .4.7 0 1.3-.3 1.5 0 0 .5.1.3.7-.1.6-.6.9-.8.9 0 0 .2.3.1.8-.2.4-.7.7-1 .7 0 0 .1.2-.2.4-.3.2-.6.5-1 .3 0 0-.4 1.3-1.6 1.8-.7.2-.8.8-1 1-.1.1-.6.3-.6.3s-.1.4-.2.9c0 .2-.1.3-.1.5 5.5-.5 9.5-4.8 9.5-10.1C62.5 4.9 58.1.4 52.1.4zM99.9 20.2h.5c.1 0 .2 0 .3.1h.1c-.1-.1-.2-.3-.2-.4-.1-.1-.1-.3-.1-.4v-.3c0-.1 0-.3-.1-.5 0-.1-.1-.2-.1-.1s-.1.2-.1.3c-.1.1-.1.3-.1.4 0 .1-.1.3-.1.4-.1.1-.2.3-.3.3l-.2.1c-.1.1-.1.1 0 .1h.4z"/><path d="M101.6.8l-7.5 10.9V.8h-5.3v19.3c.1 0 .2 0 .3-.1l.3-.1c.1 0 .3-.1.5-.1H91l.6-.1H95c.1 0 .3 0 .4-.1.1-.1.2-.2.2-.3.1-.1.1-.3.1-.4v-.1-.6c0-.1 0-.3.1-.5v-.1c.1-.1.1-.3.2-.4l.1-.4c0-.1.1-.3.2-.4l.3-.6c.1-.1.2-.3.2-.4l.3-.5c.1-.1.2-.3.3-.4l.2-.3c.1-.1.2-.3.3-.3l.2-.2c.1-.1.3-.2.4-.3l.1-.1c.1-.1.3-.2.4-.2l.1-.1c.1-.1.3-.2.3-.3.1-.1.1-.3.2-.4v-.4c-.1-.1-.1-.2-.1-.3 0-.1 0-.2-.1-.3 0-.1-.1-.2-.2-.3-.1-.1-.2-.2-.2-.3 0-.1-.1-.2-.2-.3-.1-.1-.1-.2-.1-.4v-.3s.1-.1.2-.1.2 0 .4.1c.1.1.3.1.4.2.1.1.2.1.3.1.1 0 .2 0 .2-.1 0 0 .1-.1.2-.1s.2-.1.3-.1c.1 0 .2-.1.2-.2s.1-.3.2-.4l.3-.3c.1-.1.2-.1.2-.1s.1.1.1.2V9c.1.1.1.3.1.4 0 .1.1.3.1.5v.7l.1.4c0 .1.1.3.1.4 0 .1.1.2.1.4v.9c0 .1.1.3.1.4 0 .1.1.2.1.3 0 .1.1.3.1.4v.7c0 .1-.1.3-.1.5l-.1.1c0 .1-.1.3-.2.4l-.2.3c-.1.1-.1.3-.1.4 0 .1.1.2.1.3.1.1.2.2.2.4l.1.2c.1.1.1.3.2.4V19c0 .1 0 .3-.1.4 0 .1-.1.2-.1.2s-.1.1-.2.1-.2 0-.2-.1c-.1-.1-.1-.2-.1-.4V19v-.7-.4c0-.1-.1-.2-.2-.3l-.2-.2c-.1-.1-.2-.1-.2.1v.9l-.1.7v.7c0 .1.1.3.1.3 0 .1.1.1.2.1s.2 0 .2.1c0 0 .1.1.1.2h4.6V.8h-4.6z"/></g></svg>